<?xml version="1.0" standalone="no"?>
<!DOCTYPE svg PUBLIC "-//W3C//DTD SVG 20010904//EN"
 "http://www.w3.org/TR/2001/REC-SVG-20010904/DTD/svg10.dtd">
<svg version="1.0" xmlns="http://www.w3.org/2000/svg"
 width="300.000000pt" height="300.000000pt" viewBox="0 0 300.000000 300.000000"
 preserveAspectRatio="xMidYMid meet">
<metadata>
Created by potrace 1.14, written by Peter Selinger 2001-2017
</metadata>
<g transform="translate(0.000000,300.000000) scale(0.100000,-0.100000)"
fill="#000000" stroke="none">
<path d="M2740 2845 l0 -55 -55 0 -55 0 0 -116 0 -115 53 3 52 3 3 113 3 112
54 0 55 0 0 55 0 55 -55 0 -55 0 0 -55z"/>
<path d="M2290 2615 l0 -55 -115 0 -115 0 0 -55 0 -55 -110 0 -110 0 0 -55 0
-55 -55 0 -54 0 -3 -57 -3 -58 -57 -3 -58 -3 0 -54 0 -55 -55 0 -55 0 0 -110
0 -110 -55 0 -55 0 0 -115 0 -115 -55 0 -55 0 0 -55 0 -55 -60 0 -60 0 0 -55
0 -55 340 0 340 0 0 55 0 55 165 0 165 0 0 55 0 55 115 0 115 0 0 60 0 60 55
0 55 0 0 110 0 110 55 0 55 0 0 280 0 280 -55 0 -55 0 0 55 0 55 -110 0 -110
0 0 -55z m220 -390 l0 -225 -55 0 -55 0 0 -110 0 -110 -115 0 -115 0 0 -55 0
-55 -82 0 c-46 0 -120 -3 -165 -7 l-83 -6 0 -53 0 -54 -225 0 -225 0 0 55 0
55 55 0 55 0 0 110 0 110 55 0 55 0 0 60 0 59 58 3 57 3 3 58 3 57 54 0 55 0
0 55 0 55 55 0 55 0 0 -110 0 -110 -55 0 -55 0 0 -60 0 -60 55 0 55 0 0 55 0
55 110 0 110 0 0 110 0 110 60 0 60 0 0 -55 0 -55 55 0 55 0 0 170 0 170 55 0
55 0 0 -225z"/>
<path d="M1722 1833 l3 -58 58 -3 57 -3 0 61 0 60 -60 0 -61 0 3 -57z"/>
<path d="M150 1775 l0 -225 55 0 55 0 2 -167 3 -168 58 -3 57 -3 0 -54 0 -55
-60 0 -60 0 0 -165 0 -164 58 -3 57 -3 3 -167 2 -168 55 0 55 0 0 -55 0 -55
55 0 55 0 0 -60 0 -60 115 0 115 0 0 -55 0 -55 445 0 445 0 0 55 0 55 170 0
170 0 0 60 0 60 115 0 115 0 0 55 0 55 55 0 55 0 0 55 0 55 110 0 110 0 0 55
0 55 -110 0 -110 0 0 55 0 54 -112 3 -113 3 -3 58 -3 57 -54 0 -55 0 0 55 0
55 -55 0 -55 0 0 55 0 55 -115 0 -115 0 0 55 0 55 -225 0 -225 0 0 -55 0 -55
225 0 225 0 0 -55 0 -55 115 0 115 0 0 -60 0 -60 55 0 55 0 0 -55 0 -55 55 0
55 0 0 -49 0 -48 -82 -6 c-46 -4 -120 -4 -165 0 l-83 6 0 47 0 48 -225 7 -225
7 0 49 0 48 -57 3 -58 3 -3 58 -3 57 -54 0 -55 0 0 55 0 55 -110 0 -110 0 0
55 0 55 110 0 110 0 0 60 0 60 -280 0 -280 0 0 -60 0 -60 -55 0 -54 0 -3 58
-3 57 -57 3 -58 3 0 109 0 110 -55 0 -55 0 0 225 0 225 -55 0 -55 0 0 -225z
m450 -730 l0 -55 88 0 c49 0 123 -3 165 -6 l76 -7 3 -51 3 -51 113 -3 112 -3
0 -56 0 -56 109 8 110 7 3 -59 3 -58 168 2 167 2 0 -60 0 -59 280 0 280 0 0
-55 0 -55 -82 0 c-46 0 -120 -3 -165 -7 l-83 -6 0 -48 0 -49 -115 0 -115 0 0
49 0 49 -110 7 c-60 4 -160 4 -221 0 -61 -4 -162 -4 -225 0 l-114 7 0 54 0 54
-110 0 -110 0 0 55 0 55 -60 0 -60 0 0 109 0 109 -110 7 -110 7 0 109 0 109
55 0 55 0 0 -55z"/>
</g>
</svg>
